<svg width="69" height="69" viewBox="0 0 69 69" fill="none" xmlns="http://www.w3.org/2000/svg">
<circle cx="34.5" cy="34.5" r="33.4853" stroke="#FFEFE3" stroke-width="2.02941"/>
<path d="M40.0405 24H45.2358V24.3572C44.7379 24.9633 44.1642 25.6885 43.5148 26.5327C42.8654 27.3769 42.2052 28.2428 41.5341 29.1304C40.8631 30.0179 40.2028 30.9054 39.5534 31.7929C38.904 32.6805 38.3195 33.4706 37.8 34.1633C38.3412 34.8776 38.9581 35.7002 39.6508 36.6311C40.3435 37.5402 41.0362 38.4494 41.7289 39.3586C42.4433 40.2678 43.1252 41.1445 43.7746 41.9887C44.4456 42.8113 45.0193 43.4824 45.4955 44.0019V44.3915H40.1054C39.2395 43.0061 38.3304 41.5991 37.3779 40.1704C36.4471 38.7416 35.5812 37.4969 34.7802 36.4362C34.3689 36.9991 33.9144 37.6268 33.4165 38.3195C32.9402 38.9906 32.4532 39.6833 31.9553 40.3976C31.4791 41.0904 31.0028 41.7831 30.5266 42.4758C30.072 43.1685 29.6715 43.8071 29.3252 44.3915H24V44.0668C24.4762 43.4824 25.0391 42.768 25.6885 41.9238C26.3595 41.0795 27.0414 40.2028 27.7341 39.2936C28.4268 38.3628 29.1087 37.4428 29.7798 36.5336C30.4725 35.6245 31.0786 34.8127 31.5981 34.0984C31.0786 33.3624 30.4941 32.5506 29.8447 31.6631C29.1953 30.7755 28.5351 29.888 27.864 29.0005C27.2146 28.0913 26.576 27.2362 25.9482 26.4353C25.3205 25.6127 24.7793 24.92 24.3247 24.3572V24H29.5849C30.4075 25.3421 31.2626 26.7059 32.1501 28.0913C33.0376 29.4767 33.9144 30.7755 34.7802 31.9878C35.1049 31.5548 35.4838 31.0136 35.9167 30.3642C36.3713 29.7148 36.8367 29.0329 37.3129 28.3186C37.7892 27.5826 38.2654 26.8358 38.7416 26.0781C39.2179 25.3205 39.6508 24.6278 40.0405 24Z" fill="#FFEFE3"/>
</svg>
